<svg id="Capa_1" enable-background="new 0 0 511.999 511.999" height="512" viewBox="0 0 511.999 511.999" width="512" xmlns="http://www.w3.org/2000/svg"><g><path d="m339.719 423.172v15h107.797c-15.442 23.665-50.084 40.385-103.237 49.777-49.919 8.821-104.021 9.078-137.814 9.049v-5.483c0-14.971-10.391-27.555-24.338-30.936v-22.406h112.593v-15h-227.803c-14.2 0-25.753 11.553-25.753 25.753s11.553 25.753 25.753 25.753h107.709c9.284 0 16.838 7.553 16.838 16.837v20.48l11.839.002c1.651.001 3.354.002 5.108.002 72.099 0 228.044-1.731 258.376-78.573l4.047-10.254h-131.115zm-283.554 25.753c0-5.93 4.824-10.753 10.753-10.753h100.209v21.506h-100.21c-5.928 0-10.752-4.824-10.752-10.753z"/><path d="m309.719 423.172h15v15h-15z"/><path d="m103.016 93.41c5.999 2.906 12.623 5.051 19.203 6.287-5.318 10.647-8.471 22.514-9.214 34.931-4.48 1.576-8.55 3.82-11.771 7.029-4.424 4.406-6.763 10.243-6.763 16.879v24.938h17.436v10.329c0 44.26 21.005 86.3 56.373 113.246v9.055c0 23.396 17.283 42.827 39.751 46.206 3.378 22.469 22.811 39.751 46.207 39.751s42.827-17.283 46.206-39.751c22.469-3.379 39.752-22.81 39.752-46.206v-9.055c35.368-26.946 56.373-68.986 56.373-113.246v-10.329h17.436v-24.938c0-6.636-2.339-12.473-6.763-16.88-3.222-3.208-7.292-5.452-11.771-7.027-.743-12.417-3.896-24.285-9.214-34.932 6.58-1.236 13.204-3.381 19.204-6.287 12.679-6.141 21.995-15.312 26.943-26.521 6.931-15.7 5.937-34.242-2.532-47.236-5.843-8.966-17.924-19.653-42.304-19.653-15.177 0-22.362 8.802-31.461 19.945-7.775 9.524-18.345 22.466-39.049 36.415h-125.641c-20.704-13.949-31.273-26.891-39.049-36.415-9.098-11.143-16.284-19.945-31.46-19.945-24.379 0-36.461 10.687-42.304 19.651-8.468 12.995-9.462 31.536-2.531 47.237 4.947 11.211 14.264 20.382 26.943 26.522zm151.222 293.651c-15.177 0-27.893-10.714-30.998-24.973 12.957-2.314 24.089-9.969 30.998-20.618 6.91 10.649 18.04 18.304 30.997 20.618-3.105 14.259-15.82 24.973-30.997 24.973zm108.212-241.082c9.693-.03 27.764-.111 34.207 6.306 1.623 1.618 2.348 3.546 2.348 6.252v9.938h-9.09c-20.262-4.576-38.714-5.177-57.273-1.802v-16.851h-15v35.781l9.336-2.357c17.849-4.505 35.342-4.889 54.592-1.182v11.74c0 35.635-15.235 69.673-41.373 93.707v-22.623c0-36.582-29.761-66.344-66.343-66.344h-12.115v15h12.115c28.311 0 51.343 23.033 51.343 51.344v51.217c0 17.495-14.233 31.729-31.729 31.729-17.495 0-31.729-14.233-31.729-31.729v-31.395c15.485-2.368 28.117-11.948 31.947-24.913l-14.385-4.25c-2.523 8.539-13.063 14.736-25.063 14.736s-22.539-6.197-25.062-14.736l-14.385 4.25c3.829 12.965 16.461 22.545 31.946 24.913v31.393c0 17.495-14.233 31.729-31.729 31.729-17.495 0-31.729-14.233-31.729-31.729v-51.217c0-28.311 23.033-51.344 51.344-51.344h12.114v-15h-12.114c-36.582 0-66.344 29.762-66.344 66.344v22.623c-26.138-24.034-41.373-58.073-41.373-93.707v-11.74c19.25-3.708 36.745-3.323 54.592 1.183l9.336 2.357v-35.781h-15v16.851c-18.556-3.374-37.012-2.775-57.272 1.802h-9.091v-9.938c0-2.706.725-4.634 2.348-6.251 6.444-6.418 24.516-6.343 34.208-6.307l2.438.007v-15l-2.378-.007c-5.214-.022-11.452-.044-17.771.55 1.7-15.349 7.813-29.452 17.668-40.384 11.502-12.758 26.831-19.784 43.163-19.784h130.182c16.332 0 31.661 7.026 43.163 19.784 9.856 10.933 15.969 25.037 17.668 40.387-6.32-.594-12.558-.572-17.771-.553l-2.378.007v15zm5.276-116.547c8.756-10.723 12.174-14.432 19.842-14.432 14.179 0 24.184 4.32 29.737 12.842 6.563 10.072 5.421 23.827 1.376 32.99-7.361 16.676-27.759 23.8-41.191 24.917-1.234-1.59-2.508-3.15-3.858-4.648-1.659-1.84-3.39-3.574-5.174-5.221 7.469-4.667 14.773-11.583 20.269-19.488l-12.316-8.563c-6.54 9.408-15.226 15.711-21.366 18.141-5.172-2.991-10.647-5.312-16.337-6.922 14.092-11.34 22.476-21.602 29.018-29.616zm-276.555-1.59c5.553-8.522 15.558-12.842 29.737-12.842 7.668 0 11.086 3.709 19.842 14.432 6.542 8.014 14.926 18.277 29.019 29.616-5.691 1.609-11.165 3.93-16.337 6.922-6.141-2.43-14.827-8.732-21.367-18.14l-12.316 8.563c5.496 7.905 12.8 14.821 20.27 19.488-1.784 1.647-3.516 3.381-5.175 5.221-1.351 1.498-2.624 3.058-3.858 4.648-13.432-1.117-33.83-8.241-41.19-24.917-4.046-9.165-5.188-22.919 1.375-32.991z"/><path d="m231.738 86.36h15v15h-15z"/><path d="m261.738 86.36h15v15h-15z"/></g></svg>