<svg id="Capa_1" enable-background="new 0 0 510.031 510.031" height="512" viewBox="0 0 510.031 510.031" width="512" xmlns="http://www.w3.org/2000/svg"><g><path d="m494.669 302.371h-1.873c-1.456-59.231-25.208-114.701-67.256-156.749-38.896-38.895-89.278-62.121-143.495-66.539v-21.45l33.433-10.954c3.081-1.01 5.165-3.885 5.165-7.127v-19.51c0-4.142-3.357-7.5-7.5-7.5h-112.408c-6.257 0-11.347 5.09-11.347 11.347v12.875c0 4.918 3.141 9.252 7.814 10.784l30.783 10.085v21.441c-25.979 2.115-51.128 8.568-74.985 19.279-28.633 12.855-53.962 31.142-75.284 54.354-2.802 3.05-2.601 7.795.449 10.597 3.051 2.802 7.796 2.6 10.598-.45 19.937-21.704 43.616-38.801 70.381-50.816 27.701-12.437 57.271-18.743 87.891-18.743h15.961c57.395 0 111.354 22.351 151.938 62.935 39.215 39.215 61.401 90.919 62.854 146.142h-43.482c9.573-9.211 15.504-21.903 15.504-35.903 0-28.068-23.815-50.903-53.088-50.903s-53.088 22.835-53.088 50.903c0 14.001 5.934 26.693 15.508 35.903h-33.695v-69.004c0-9.816-7.986-17.802-17.803-17.802h-26.847c2.545-4.385 4.006-9.472 4.006-14.897 0-7.773-5.182-17.334-15.841-29.229-3.547-3.958-8.63-6.228-13.946-6.228s-10.399 2.27-13.945 6.228c-10.66 11.895-15.842 21.456-15.842 29.229 0 5.425 1.466 10.511 4.011 14.897h-26.852c-9.816 0-17.803 7.986-17.803 17.802v69.004h-10.23c3.317-8.05 2.095-17.143-3.338-24.071l-23.858-30.434c-8.546-10.901-21.392-17.154-35.243-17.154s-26.697 6.252-35.243 17.154l-23.858 30.434c-5.431 6.928-6.654 16.021-3.337 24.071h-17.228c1.095-41.329 13.886-81.033 37.18-115.166 2.335-3.421 1.454-8.087-1.968-10.422-3.42-2.336-8.089-1.455-10.423 1.967-25.001 36.635-38.698 79.262-39.796 123.621h-1.881c-8.47-.001-15.362 6.891-15.362 15.363v18.601c0 8.471 6.892 15.363 15.362 15.363h4.619l16.972 34.728c9.007 18.429 28.031 30.365 48.529 30.481l-2.289 61.192c-.191 5.122 1.661 9.975 5.217 13.667 3.556 3.691 8.336 5.724 13.461 5.724 7.175 0 13.601-3.999 16.769-10.435l34.535-70.143h34.503c4.143 0 7.5-3.358 7.5-7.5s-3.357-7.5-7.5-7.5h-101.895c-14.924 0-28.801-8.664-35.354-22.072l-13.753-28.142h330.074c4.143 0 7.5-3.358 7.5-7.5s-3.357-7.5-7.5-7.5h-351.388c-.2 0-.362-.163-.362-.363v-18.601c0-.2.162-.363.362-.363h479.307c.2 0 .362.163.362.363v18.601c0 .2-.162.363-.362.363h-95.957c-4.143 0-7.5 3.358-7.5 7.5s3.357 7.5 7.5 7.5h74.643l-13.754 28.142c-6.553 13.408-20.43 22.072-35.354 22.072h-204.587c-4.143 0-7.5 3.358-7.5 7.5s3.357 7.5 7.5 7.5h138.196l34.535 70.142c3.168 6.437 9.594 10.435 16.769 10.435 5.125 0 9.905-2.033 13.461-5.724s5.408-8.544 5.217-13.666l-2.289-61.211c20.114-.492 38.669-12.333 47.529-30.463l16.972-34.728h4.619c8.471 0 15.362-6.892 15.362-15.363v-18.601c0-8.471-6.891-15.363-15.362-15.363zm-247.634-224.076c-1.353 0-2.7.029-4.049.052v-26.149c0-3.243-2.084-6.118-5.165-7.127l-33.433-10.954v-6.575h101.254v6.575l-33.432 10.953c-3.081 1.01-5.165 3.885-5.165 7.127v26.146c-1.349-.023-2.697-.049-4.049-.049h-15.961zm5.206 103.154c.965-1.077 2.152-1.238 2.774-1.238s1.81.161 2.775 1.238c8.866 9.894 12.012 16.536 12.012 19.218 0 8.153-6.634 14.787-14.787 14.787s-14.787-6.633-14.787-14.787c.001-2.681 3.146-9.324 12.013-19.218zm-147.058 298.981c-.616 1.251-1.916 2.06-3.312 2.06-1.365 0-2.251-.708-2.658-1.13-.406-.422-1.081-1.334-1.029-2.699l2.309-61.748h35.963zm253.45-213.962c0-19.797 17.086-35.903 38.088-35.903s38.088 16.106 38.088 35.903-17.086 35.903-38.088 35.903-38.088-16.106-38.088-35.903zm-156.245-35.903h105.256c1.546 0 2.803 1.257 2.803 2.802v15.717h-110.862v-15.717c0-1.545 1.257-2.802 2.803-2.802zm-2.803 33.519h110.861v38.288h-110.861zm-135.993 33.135c-1.571-3.227-1.187-6.839 1.027-9.664l23.858-30.434c5.684-7.25 14.227-11.408 23.438-11.408s17.755 4.158 23.438 11.408l23.858 30.435c2.214 2.824 2.599 6.437 1.028 9.663-1.57 3.227-4.65 5.153-8.239 5.153h-80.17c-3.588-.001-6.668-1.927-8.238-5.153zm348.226 184.141c-.407.422-1.293 1.13-2.658 1.13-1.396 0-2.695-.809-3.312-2.061l-31.273-63.517h35.963l2.309 61.748c.052 1.366-.622 2.278-1.029 2.7z"/><path d="m386.727 246.823h-3.996c-4.143 0-7.5 3.358-7.5 7.5s3.357 7.5 7.5 7.5h3.996c4.143 0 7.5-3.358 7.5-7.5s-3.358-7.5-7.5-7.5z"/><path d="m412.987 269.658h-8.754c-4.143 0-7.5 3.358-7.5 7.5s3.357 7.5 7.5 7.5h8.754c4.143 0 7.5-3.358 7.5-7.5s-3.357-7.5-7.5-7.5z"/></g></svg>